<svg xmlns="http://www.w3.org/2000/svg" viewBox="0 0 64 64" fill="none">
  <rect width="64" height="64" rx="12" fill="#0f6f4f"/>
  <path d="M32 12c-7 3-13 5-19 6 0 16 8 26 19 32 11-6 19-16 19-32-6-1-12-3-19-6z" fill="#ffffff" opacity="0.18"/>
  <path d="M32 14c-6 2.5-11.5 4.5-17 5.5 0 14 7 22.5 17 28 10-5.5 17-14 17-28-5.5-1-11-3-17-5.5z" stroke="#ffffff" stroke-width="2.5" fill="none"/>
  <path d="M24 33l6 6 12-12" stroke="#ffffff" stroke-width="3.5" stroke-linecap="round" stroke-linejoin="round" fill="none"/>
</svg>
